<svg width="73" height="75" viewBox="0 0 73 75" fill="none" xmlns="http://www.w3.org/2000/svg">
<rect x="0.5" y="0.5" width="72" height="74" rx="6.5" fill="#1A1A1A" stroke="#72B0B4"/>
<path d="M56.3646 54.384C56.9726 54.48 57.5246 54.728 58.0206 55.128C58.5326 55.528 58.9326 56.024 59.2206 56.616C59.5246 57.208 59.6766 57.84 59.6766 58.512C59.6766 59.36 59.4606 60.128 59.0286 60.816C58.5966 61.488 57.9646 62.024 57.1326 62.424C56.3166 62.808 55.3486 63 54.2286 63H47.9886V46.272H53.9886C55.1246 46.272 56.0926 46.464 56.8926 46.848C57.6926 47.216 58.2926 47.72 58.6926 48.36C59.0926 49 59.2926 49.72 59.2926 50.52C59.2926 51.512 59.0206 52.336 58.4766 52.992C57.9486 53.632 57.2446 54.096 56.3646 54.384ZM50.1726 53.496H53.8446C54.8686 53.496 55.6606 53.256 56.2206 52.776C56.7806 52.296 57.0606 51.632 57.0606 50.784C57.0606 49.936 56.7806 49.272 56.2206 48.792C55.6606 48.312 54.8526 48.072 53.7966 48.072H50.1726V53.496ZM54.0366 61.2C55.1246 61.2 55.9726 60.944 56.5806 60.432C57.1886 59.92 57.4926 59.208 57.4926 58.296C57.4926 57.368 57.1726 56.64 56.5326 56.112C55.8926 55.568 55.0366 55.296 53.9646 55.296H50.1726V61.2H54.0366Z" fill="white"/>
<path d="M26.4087 11.272V23.632C26.4087 25.008 25.9847 26.112 25.1367 26.944C24.2887 27.76 23.1687 28.168 21.7767 28.168C20.3687 28.168 19.2407 27.752 18.3927 26.92C17.5447 26.072 17.1207 24.92 17.1207 23.464H19.3047C19.3207 24.28 19.5287 24.944 19.9287 25.456C20.3447 25.968 20.9607 26.224 21.7767 26.224C22.5927 26.224 23.2007 25.984 23.6007 25.504C24.0007 25.008 24.2007 24.384 24.2007 23.632V11.272H26.4087Z" fill="white"/>
<line x1="53.7089" y1="20.3536" x2="18.3536" y2="55.7089" stroke="white"/>
</svg>
