<svg width="156" height="65" viewBox="0 0 156 65" fill="none" xmlns="http://www.w3.org/2000/svg">
<g filter="url(#filter0_d)">
<rect x="4" width="148" height="56.2645" rx="5" fill="#52A399"/>
</g>
<g filter="url(#filter1_d)">
<path d="M4 5C4 2.23858 6.23858 0 9 0H147C149.761 0 152 2.23858 152 5V18.3471H4V5Z" fill="#36726A"/>
</g>
<g filter="url(#filter2_d)">
<path d="M45.9979 39.1908C45.9979 40.2299 45.7283 41.1635 45.1893 41.9916C44.658 42.8197 43.8768 43.4681 42.8455 43.9369C41.8143 44.4056 40.5916 44.64 39.1775 44.64C37.4822 44.64 36.0838 44.3197 34.9822 43.6791C34.201 43.2181 33.5643 42.6049 33.0721 41.8392C32.5877 41.0658 32.3455 40.3158 32.3455 39.5892C32.3455 39.1674 32.49 38.808 32.7791 38.5111C33.076 38.2064 33.451 38.0541 33.9041 38.0541C34.2713 38.0541 34.5799 38.1713 34.8299 38.4056C35.0877 38.64 35.3064 38.9877 35.4861 39.4486C35.7049 39.9955 35.9393 40.4525 36.1893 40.8197C36.4471 41.1869 36.8064 41.4916 37.2674 41.7338C37.7283 41.9681 38.3338 42.0853 39.0838 42.0853C40.115 42.0853 40.951 41.847 41.5916 41.3705C42.24 40.8861 42.5643 40.2845 42.5643 39.5658C42.5643 38.9955 42.3885 38.5345 42.0369 38.183C41.6932 37.8236 41.2439 37.5502 40.6893 37.3627C40.1424 37.1752 39.408 36.976 38.4861 36.765C37.2518 36.476 36.2166 36.14 35.3807 35.7572C34.5525 35.3666 33.8924 34.8392 33.4002 34.1752C32.9158 33.5033 32.6736 32.6713 32.6736 31.6791C32.6736 30.7338 32.9314 29.8939 33.4471 29.1595C33.9627 28.4252 34.7088 27.8627 35.6854 27.472C36.6619 27.0736 37.8104 26.8744 39.1307 26.8744C40.1854 26.8744 41.0955 27.0072 41.8611 27.2728C42.6346 27.5306 43.2752 27.8783 43.783 28.3158C44.2908 28.7455 44.6619 29.1986 44.8963 29.6752C45.1307 30.1517 45.2479 30.6166 45.2479 31.0697C45.2479 31.4838 45.0994 31.8588 44.8025 32.1947C44.5135 32.5228 44.1502 32.6869 43.7127 32.6869C43.3143 32.6869 43.0096 32.5892 42.7986 32.3939C42.5955 32.1908 42.3729 31.8627 42.1307 31.4095C41.8182 30.7611 41.4432 30.2572 41.0057 29.8978C40.5682 29.5306 39.865 29.347 38.8963 29.347C37.9979 29.347 37.2713 29.5463 36.7166 29.9447C36.1697 30.3353 35.8963 30.808 35.8963 31.3627C35.8963 31.7064 35.99 32.0033 36.1775 32.2533C36.365 32.5033 36.6229 32.7181 36.951 32.8978C37.2791 33.0775 37.6111 33.2181 37.9471 33.3197C38.283 33.4213 38.8377 33.5697 39.6111 33.765C40.5799 33.9916 41.4549 34.2416 42.2361 34.515C43.0252 34.7885 43.6932 35.1205 44.24 35.5111C44.7947 35.9017 45.2244 36.3978 45.5291 36.9994C45.8416 37.5931 45.9979 38.3236 45.9979 39.1908ZM60.201 40.6791C60.201 41.0775 60.0799 41.5033 59.8377 41.9564C59.6033 42.4095 59.24 42.8431 58.7479 43.2572C58.2635 43.6635 57.6502 43.9916 56.908 44.2416C56.1658 44.4916 55.3299 44.6166 54.4002 44.6166C52.4236 44.6166 50.8807 44.0424 49.7713 42.8939C48.6619 41.7377 48.1072 40.1908 48.1072 38.2533C48.1072 36.9408 48.3611 35.7806 48.8689 34.7728C49.3768 33.765 50.1111 32.9877 51.0721 32.4408C52.033 31.8861 53.1814 31.6088 54.5174 31.6088C55.3455 31.6088 56.1033 31.7299 56.7908 31.972C57.4861 32.2142 58.0721 32.5267 58.5486 32.9095C59.033 33.2924 59.4002 33.7025 59.6502 34.14C59.908 34.5697 60.0369 34.972 60.0369 35.347C60.0369 35.7299 59.8924 36.0541 59.6033 36.3197C59.3221 36.5853 58.9783 36.7181 58.5721 36.7181C58.3064 36.7181 58.0838 36.6517 57.9041 36.5189C57.7322 36.3783 57.5369 36.1556 57.3182 35.851C56.9275 35.2572 56.5174 34.8119 56.0877 34.515C55.6658 34.2181 55.1268 34.0697 54.4705 34.0697C53.5252 34.0697 52.7635 34.4408 52.1854 35.183C51.6072 35.9174 51.3182 36.9252 51.3182 38.2064C51.3182 38.808 51.3924 39.3627 51.5408 39.8705C51.6893 40.3705 51.9041 40.8002 52.1854 41.1595C52.4666 41.5111 52.8064 41.7806 53.2049 41.9681C53.6033 42.1478 54.0408 42.2377 54.5174 42.2377C55.158 42.2377 55.7049 42.0892 56.158 41.7924C56.6189 41.4955 57.0252 41.0424 57.3768 40.433C57.5721 40.0736 57.783 39.7924 58.0096 39.5892C58.2361 39.3861 58.5135 39.2845 58.8416 39.2845C59.2322 39.2845 59.5564 39.433 59.8143 39.7299C60.0721 40.0267 60.201 40.3431 60.201 40.6791ZM74.9783 38.1361C74.9783 39.0892 74.8299 39.9681 74.533 40.7728C74.2361 41.5775 73.8064 42.2689 73.2439 42.847C72.6814 43.4252 72.0096 43.8705 71.2283 44.183C70.4471 44.4877 69.5682 44.64 68.5916 44.64C67.6229 44.64 66.7518 44.4838 65.9783 44.1713C65.2049 43.8588 64.533 43.4135 63.9627 42.8353C63.4002 42.2494 62.9705 41.5619 62.6736 40.7728C62.3846 39.976 62.24 39.097 62.24 38.1361C62.24 37.1674 62.3885 36.2806 62.6854 35.476C62.9822 34.6713 63.408 33.9838 63.9627 33.4135C64.5174 32.8431 65.1893 32.4056 65.9783 32.101C66.7674 31.7885 67.6385 31.6322 68.5916 31.6322C69.5604 31.6322 70.4393 31.7885 71.2283 32.101C72.0174 32.4135 72.6932 32.8588 73.2557 33.4369C73.8182 34.015 74.2439 34.7025 74.533 35.4994C74.8299 36.2963 74.9783 37.1752 74.9783 38.1361ZM71.7674 38.1361C71.7674 36.8314 71.4783 35.8158 70.9002 35.0892C70.3299 34.3627 69.5604 33.9994 68.5916 33.9994C67.9666 33.9994 67.4158 34.1635 66.9393 34.4916C66.4627 34.8119 66.0955 35.2885 65.8377 35.9213C65.5799 36.5541 65.451 37.2924 65.451 38.1361C65.451 38.972 65.576 39.7025 65.826 40.3275C66.0838 40.9525 66.4471 41.433 66.9158 41.7689C67.3924 42.097 67.951 42.2611 68.5916 42.2611C69.5604 42.2611 70.3299 41.8978 70.9002 41.1713C71.4783 40.4369 71.7674 39.4252 71.7674 38.1361ZM89.4861 38.1361C89.4861 39.0892 89.3377 39.9681 89.0408 40.7728C88.7439 41.5775 88.3143 42.2689 87.7518 42.847C87.1893 43.4252 86.5174 43.8705 85.7361 44.183C84.9549 44.4877 84.076 44.64 83.0994 44.64C82.1307 44.64 81.2596 44.4838 80.4861 44.1713C79.7127 43.8588 79.0408 43.4135 78.4705 42.8353C77.908 42.2494 77.4783 41.5619 77.1814 40.7728C76.8924 39.976 76.7479 39.097 76.7479 38.1361C76.7479 37.1674 76.8963 36.2806 77.1932 35.476C77.49 34.6713 77.9158 33.9838 78.4705 33.4135C79.0252 32.8431 79.6971 32.4056 80.4861 32.101C81.2752 31.7885 82.1463 31.6322 83.0994 31.6322C84.0682 31.6322 84.9471 31.7885 85.7361 32.101C86.5252 32.4135 87.201 32.8588 87.7635 33.4369C88.326 34.015 88.7518 34.7025 89.0408 35.4994C89.3377 36.2963 89.4861 37.1752 89.4861 38.1361ZM86.2752 38.1361C86.2752 36.8314 85.9861 35.8158 85.408 35.0892C84.8377 34.3627 84.0682 33.9994 83.0994 33.9994C82.4744 33.9994 81.9236 34.1635 81.4471 34.4916C80.9705 34.8119 80.6033 35.2885 80.3455 35.9213C80.0877 36.5541 79.9588 37.2924 79.9588 38.1361C79.9588 38.972 80.0838 39.7025 80.3338 40.3275C80.5916 40.9525 80.9549 41.433 81.4236 41.7689C81.9002 42.097 82.4588 42.2611 83.0994 42.2611C84.0682 42.2611 84.8377 41.8978 85.408 41.1713C85.9861 40.4369 86.2752 39.4252 86.2752 38.1361ZM100.783 42.8119V42.4955C100.353 42.9877 99.9275 43.39 99.5057 43.7025C99.0916 44.0072 98.6385 44.2377 98.1463 44.3939C97.6619 44.558 97.1307 44.64 96.5525 44.64C95.7869 44.64 95.076 44.4799 94.4197 44.1595C93.7713 43.8314 93.2088 43.3666 92.7322 42.765C92.2557 42.1635 91.8924 41.4564 91.6424 40.6439C91.4002 39.8314 91.2791 38.9525 91.2791 38.0072C91.2791 36.0072 91.7674 34.4486 92.7439 33.3314C93.7205 32.2142 95.0057 31.6556 96.5994 31.6556C97.5213 31.6556 98.2986 31.8158 98.9314 32.1361C99.5643 32.4486 100.181 32.933 100.783 33.5892V28.8666C100.783 28.2103 100.912 27.7142 101.17 27.3783C101.435 27.0424 101.81 26.8744 102.295 26.8744C102.779 26.8744 103.15 27.0306 103.408 27.3431C103.674 27.6478 103.806 28.101 103.806 28.7025V42.8119C103.806 43.4213 103.666 43.8783 103.385 44.183C103.103 44.4877 102.74 44.64 102.295 44.64C101.857 44.64 101.494 44.4838 101.205 44.1713C100.924 43.851 100.783 43.3978 100.783 42.8119ZM94.49 38.1127C94.49 38.9799 94.6229 39.7181 94.8885 40.3275C95.1619 40.9369 95.533 41.3978 96.0018 41.7103C96.4705 42.015 96.9822 42.1674 97.5369 42.1674C98.0994 42.1674 98.6111 42.0228 99.0721 41.7338C99.5408 41.4369 99.9119 40.9877 100.185 40.3861C100.467 39.7767 100.607 39.0189 100.607 38.1127C100.607 37.2611 100.467 36.5306 100.185 35.9213C99.9119 35.3041 99.5369 34.8353 99.0604 34.515C98.5916 34.1869 98.076 34.0228 97.5135 34.0228C96.9275 34.0228 96.4041 34.1908 95.9432 34.5267C95.4822 34.8549 95.1229 35.3314 94.865 35.9564C94.615 36.5736 94.49 37.2924 94.49 38.1127ZM107.017 42.6947V28.8197C107.017 28.1791 107.158 27.6947 107.439 27.3666C107.728 27.0385 108.115 26.8744 108.599 26.8744C109.084 26.8744 109.474 27.0385 109.771 27.3666C110.068 27.6869 110.217 28.1713 110.217 28.8197V42.6947C110.217 43.3431 110.064 43.8314 109.76 44.1595C109.463 44.4799 109.076 44.64 108.599 44.64C108.131 44.64 107.748 44.472 107.451 44.1361C107.162 43.8002 107.017 43.3197 107.017 42.6947ZM122.463 38.9213H116.205C116.213 39.6478 116.357 40.2885 116.638 40.8431C116.928 41.3978 117.306 41.8158 117.775 42.097C118.252 42.3783 118.775 42.5189 119.346 42.5189C119.728 42.5189 120.076 42.476 120.388 42.39C120.709 42.2963 121.017 42.1556 121.314 41.9681C121.611 41.7728 121.885 41.5658 122.135 41.347C122.385 41.1283 122.709 40.8314 123.107 40.4564C123.271 40.3158 123.506 40.2455 123.81 40.2455C124.138 40.2455 124.404 40.3353 124.607 40.515C124.81 40.6947 124.912 40.9486 124.912 41.2767C124.912 41.5658 124.799 41.9056 124.572 42.2963C124.346 42.6791 124.002 43.0502 123.541 43.4095C123.088 43.7611 122.513 44.0541 121.818 44.2885C121.131 44.5228 120.338 44.64 119.439 44.64C117.385 44.64 115.787 44.0541 114.646 42.8822C113.506 41.7103 112.935 40.1205 112.935 38.1127C112.935 37.1674 113.076 36.2924 113.357 35.4877C113.638 34.6752 114.049 33.9799 114.588 33.4017C115.127 32.8236 115.791 32.3822 116.58 32.0775C117.369 31.765 118.244 31.6088 119.205 31.6088C120.455 31.6088 121.525 31.8744 122.416 32.4056C123.314 32.9291 123.986 33.6088 124.431 34.4447C124.877 35.2806 125.099 36.1322 125.099 36.9994C125.099 37.8041 124.869 38.3275 124.408 38.5697C123.947 38.8041 123.299 38.9213 122.463 38.9213ZM116.205 37.1049H122.006C121.928 36.0111 121.631 35.1947 121.115 34.6556C120.607 34.1088 119.935 33.8353 119.099 33.8353C118.303 33.8353 117.646 34.1127 117.131 34.6674C116.623 35.2142 116.314 36.0267 116.205 37.1049Z" fill="white"/>
</g>
<circle cx="13.7847" cy="7.33886" r="3.66942" fill="#FFF8E1"/>
<circle cx="143.438" cy="7.33886" r="3.66942" fill="#FFF8E1"/>
<defs>
<filter id="filter0_d" x="0" y="0" width="156" height="64.2645" filterUnits="userSpaceOnUse" color-interpolation-filters="sRGB">
<feFlood flood-opacity="0" result="BackgroundImageFix"/>
<feColorMatrix in="SourceAlpha" type="matrix" values="0 0 0 0 0 0 0 0 0 0 0 0 0 0 0 0 0 0 127 0"/>
<feOffset dy="4"/>
<feGaussianBlur stdDeviation="2"/>
<feColorMatrix type="matrix" values="0 0 0 0 0 0 0 0 0 0 0 0 0 0 0 0 0 0 0.25 0"/>
<feBlend mode="normal" in2="BackgroundImageFix" result="effect1_dropShadow"/>
<feBlend mode="normal" in="SourceGraphic" in2="effect1_dropShadow" result="shape"/>
</filter>
<filter id="filter1_d" x="3" y="0" width="150" height="21.3471" filterUnits="userSpaceOnUse" color-interpolation-filters="sRGB">
<feFlood flood-opacity="0" result="BackgroundImageFix"/>
<feColorMatrix in="SourceAlpha" type="matrix" values="0 0 0 0 0 0 0 0 0 0 0 0 0 0 0 0 0 0 127 0"/>
<feOffset dy="2"/>
<feGaussianBlur stdDeviation="0.5"/>
<feColorMatrix type="matrix" values="0 0 0 0 0 0 0 0 0 0 0 0 0 0 0 0 0 0 0.25 0"/>
<feBlend mode="normal" in2="BackgroundImageFix" result="effect1_dropShadow"/>
<feBlend mode="normal" in="SourceGraphic" in2="effect1_dropShadow" result="shape"/>
</filter>
<filter id="filter2_d" x="28.3457" y="24.8744" width="100.754" height="25.7656" filterUnits="userSpaceOnUse" color-interpolation-filters="sRGB">
<feFlood flood-opacity="0" result="BackgroundImageFix"/>
<feColorMatrix in="SourceAlpha" type="matrix" values="0 0 0 0 0 0 0 0 0 0 0 0 0 0 0 0 0 0 127 0"/>
<feOffset dy="2"/>
<feGaussianBlur stdDeviation="2"/>
<feColorMatrix type="matrix" values="0 0 0 0 0 0 0 0 0 0 0 0 0 0 0 0 0 0 0.25 0"/>
<feBlend mode="normal" in2="BackgroundImageFix" result="effect1_dropShadow"/>
<feBlend mode="normal" in="SourceGraphic" in2="effect1_dropShadow" result="shape"/>
</filter>
</defs>
</svg>
